<svg width="256" height="256" viewBox="0 0 64 64" fill="none" xmlns="http://www.w3.org/2000/svg">
  <defs>
    <linearGradient id="sbGradient" x1="7" y1="8" x2="56" y2="57" gradientUnits="userSpaceOnUse">
      <stop stop-color="#22C55E" />
      <stop offset="0.56" stop-color="#0EA5E9" />
      <stop offset="1" stop-color="#2563EB" />
    </linearGradient>
  </defs>
  <rect x="4" y="4" width="56" height="56" rx="16" fill="url(#sbGradient)" />
  <path
    d="M20 38.5C20 43.75 24.2 48 29.4 48H34.6C39.8 48 44 43.75 44 38.5C44 33.25 39.8 29 34.6 29H29.4C27.15 29 25.3 27.15 25.3 24.9C25.3 22.65 27.15 20.8 29.4 20.8H34.6C36.85 20.8 38.7 22.65 38.7 24.9"
    stroke="white"
    stroke-width="5"
    stroke-linecap="round"
  />
  <path d="M32 14V20" stroke="white" stroke-width="5" stroke-linecap="round" />
  <path d="M32 48V54" stroke="white" stroke-width="5" stroke-linecap="round" />
  <circle cx="50" cy="14" r="6" fill="rgba(255,255,255,0.28)" />
</svg>
